<mxfile host="app.diagrams.net" modified="2020-10-19T13:20:06.071Z" agent="5.0 (Windows NT 10.0; Win64; x64) AppleWebKit/537.36 (KHTML, like Gecko) Chrome/86.0.4240.75 Safari/537.36" etag="SGPdYg7xCf9v-4t7h5CK" version="13.8.0" type="github">
  <diagram id="2BNaoJaqJa7NK7NwptWt" name="Page-1">
    <mxGraphModel dx="1422" dy="762" grid="1" gridSize="10" guides="1" tooltips="1" connect="1" arrows="1" fold="1" page="1" pageScale="1" pageWidth="827" pageHeight="1169" math="0" shadow="0">
      <root>
        <mxCell id="0" />
        <mxCell id="1" parent="0" />
        <mxCell id="ptf8N6MJuxo93Xc3bLuZ-1" value="Начало" style="ellipse;whiteSpace=wrap;html=1;fontSize=17;" vertex="1" parent="1">
          <mxGeometry x="320" y="40" width="120" height="80" as="geometry" />
        </mxCell>
        <mxCell id="ptf8N6MJuxo93Xc3bLuZ-2" value="" style="endArrow=classic;html=1;exitX=0.5;exitY=1;exitDx=0;exitDy=0;" edge="1" parent="1" source="ptf8N6MJuxo93Xc3bLuZ-1" target="ptf8N6MJuxo93Xc3bLuZ-3">
          <mxGeometry width="50" height="50" relative="1" as="geometry">
            <mxPoint x="349.5" y="120" as="sourcePoint" />
            <mxPoint x="350" y="160" as="targetPoint" />
          </mxGeometry>
        </mxCell>
        <mxCell id="ptf8N6MJuxo93Xc3bLuZ-3" value="i = 1&lt;br style=&quot;font-size: 15px;&quot;&gt;j = 2&lt;br style=&quot;font-size: 15px;&quot;&gt;k = 3" style="rounded=0;whiteSpace=wrap;html=1;fontSize=15;" vertex="1" parent="1">
          <mxGeometry x="320" y="160" width="120" height="60" as="geometry" />
        </mxCell>
        <mxCell id="ptf8N6MJuxo93Xc3bLuZ-5" value="" style="endArrow=classic;html=1;exitX=0.5;exitY=1;exitDx=0;exitDy=0;" edge="1" parent="1" source="ptf8N6MJuxo93Xc3bLuZ-3" target="ptf8N6MJuxo93Xc3bLuZ-6">
          <mxGeometry width="50" height="50" relative="1" as="geometry">
            <mxPoint x="350" y="220" as="sourcePoint" />
            <mxPoint x="349.5" y="270" as="targetPoint" />
          </mxGeometry>
        </mxCell>
        <mxCell id="ptf8N6MJuxo93Xc3bLuZ-6" value="i &amp;gt; j" style="rhombus;whiteSpace=wrap;html=1;fontSize=17;" vertex="1" parent="1">
          <mxGeometry x="340" y="270" width="80" height="80" as="geometry" />
        </mxCell>
        <mxCell id="ptf8N6MJuxo93Xc3bLuZ-8" value="" style="shape=partialRectangle;whiteSpace=wrap;html=1;bottom=0;right=0;fillColor=none;" vertex="1" parent="1">
          <mxGeometry x="190" y="310" width="150" height="60" as="geometry" />
        </mxCell>
        <mxCell id="ptf8N6MJuxo93Xc3bLuZ-21" style="edgeStyle=orthogonalEdgeStyle;rounded=0;orthogonalLoop=1;jettySize=auto;html=1;exitX=1;exitY=1;exitDx=0;exitDy=0;" edge="1" parent="1" source="ptf8N6MJuxo93Xc3bLuZ-9">
          <mxGeometry relative="1" as="geometry">
            <mxPoint x="570" y="390" as="targetPoint" />
          </mxGeometry>
        </mxCell>
        <mxCell id="ptf8N6MJuxo93Xc3bLuZ-9" value="" style="shape=partialRectangle;whiteSpace=wrap;html=1;bottom=0;right=0;shadow=0;sketch=0;fillColor=none;flipV=0;flipH=1;" vertex="1" parent="1">
          <mxGeometry x="420" y="310" width="150" height="70" as="geometry" />
        </mxCell>
        <mxCell id="ptf8N6MJuxo93Xc3bLuZ-10" value="" style="endArrow=classic;html=1;" edge="1" parent="1">
          <mxGeometry width="50" height="50" relative="1" as="geometry">
            <mxPoint x="190" y="350" as="sourcePoint" />
            <mxPoint x="190" y="390" as="targetPoint" />
          </mxGeometry>
        </mxCell>
        <mxCell id="ptf8N6MJuxo93Xc3bLuZ-12" value="i &amp;gt; k" style="rhombus;whiteSpace=wrap;html=1;shadow=0;sketch=0;fillColor=none;fontSize=17;" vertex="1" parent="1">
          <mxGeometry x="150" y="390" width="80" height="80" as="geometry" />
        </mxCell>
        <mxCell id="ptf8N6MJuxo93Xc3bLuZ-13" value="j &amp;gt; k" style="rhombus;whiteSpace=wrap;html=1;shadow=0;sketch=0;fillColor=none;fontSize=17;" vertex="1" parent="1">
          <mxGeometry x="530" y="390" width="80" height="80" as="geometry" />
        </mxCell>
        <mxCell id="ptf8N6MJuxo93Xc3bLuZ-24" style="edgeStyle=orthogonalEdgeStyle;rounded=0;orthogonalLoop=1;jettySize=auto;html=1;exitX=0;exitY=1;exitDx=0;exitDy=0;" edge="1" parent="1" source="ptf8N6MJuxo93Xc3bLuZ-14">
          <mxGeometry relative="1" as="geometry">
            <mxPoint x="80" y="500" as="targetPoint" />
          </mxGeometry>
        </mxCell>
        <mxCell id="ptf8N6MJuxo93Xc3bLuZ-14" value="" style="shape=partialRectangle;whiteSpace=wrap;html=1;bottom=0;right=0;fillColor=none;shadow=0;sketch=0;" vertex="1" parent="1">
          <mxGeometry x="80" y="430" width="70" height="60" as="geometry" />
        </mxCell>
        <mxCell id="ptf8N6MJuxo93Xc3bLuZ-26" style="edgeStyle=orthogonalEdgeStyle;rounded=0;orthogonalLoop=1;jettySize=auto;html=1;exitX=0;exitY=1;exitDx=0;exitDy=0;" edge="1" parent="1" source="ptf8N6MJuxo93Xc3bLuZ-15">
          <mxGeometry relative="1" as="geometry">
            <mxPoint x="410" y="500" as="targetPoint" />
          </mxGeometry>
        </mxCell>
        <mxCell id="ptf8N6MJuxo93Xc3bLuZ-15" value="" style="shape=partialRectangle;whiteSpace=wrap;html=1;bottom=0;right=0;fillColor=none;shadow=0;sketch=0;" vertex="1" parent="1">
          <mxGeometry x="410" y="430" width="120" height="60" as="geometry" />
        </mxCell>
        <mxCell id="ptf8N6MJuxo93Xc3bLuZ-27" style="edgeStyle=orthogonalEdgeStyle;rounded=0;orthogonalLoop=1;jettySize=auto;html=1;exitX=1;exitY=1;exitDx=0;exitDy=0;entryX=1;entryY=1;entryDx=0;entryDy=0;" edge="1" parent="1" source="ptf8N6MJuxo93Xc3bLuZ-22" target="ptf8N6MJuxo93Xc3bLuZ-22">
          <mxGeometry relative="1" as="geometry">
            <mxPoint x="730" y="500" as="targetPoint" />
          </mxGeometry>
        </mxCell>
        <mxCell id="ptf8N6MJuxo93Xc3bLuZ-37" style="edgeStyle=orthogonalEdgeStyle;rounded=0;orthogonalLoop=1;jettySize=auto;html=1;exitX=1;exitY=1;exitDx=0;exitDy=0;" edge="1" parent="1" source="ptf8N6MJuxo93Xc3bLuZ-22">
          <mxGeometry relative="1" as="geometry">
            <mxPoint x="670" y="500" as="targetPoint" />
          </mxGeometry>
        </mxCell>
        <mxCell id="ptf8N6MJuxo93Xc3bLuZ-22" value="" style="shape=partialRectangle;whiteSpace=wrap;html=1;bottom=0;right=0;fillColor=none;shadow=0;sketch=0;flipH=1;" vertex="1" parent="1">
          <mxGeometry x="610" y="430" width="60" height="60" as="geometry" />
        </mxCell>
        <mxCell id="ptf8N6MJuxo93Xc3bLuZ-25" style="edgeStyle=orthogonalEdgeStyle;rounded=0;orthogonalLoop=1;jettySize=auto;html=1;exitX=1;exitY=1;exitDx=0;exitDy=0;entryX=1;entryY=1;entryDx=0;entryDy=0;" edge="1" parent="1" source="ptf8N6MJuxo93Xc3bLuZ-23" target="ptf8N6MJuxo93Xc3bLuZ-23">
          <mxGeometry relative="1" as="geometry">
            <mxPoint x="350" y="500" as="targetPoint" />
          </mxGeometry>
        </mxCell>
        <mxCell id="ptf8N6MJuxo93Xc3bLuZ-34" style="edgeStyle=orthogonalEdgeStyle;rounded=0;orthogonalLoop=1;jettySize=auto;html=1;exitX=1;exitY=1;exitDx=0;exitDy=0;" edge="1" parent="1" source="ptf8N6MJuxo93Xc3bLuZ-23">
          <mxGeometry relative="1" as="geometry">
            <mxPoint x="300" y="500" as="targetPoint" />
          </mxGeometry>
        </mxCell>
        <mxCell id="ptf8N6MJuxo93Xc3bLuZ-23" value="" style="shape=partialRectangle;whiteSpace=wrap;html=1;bottom=0;right=0;fillColor=none;shadow=0;sketch=0;flipH=1;" vertex="1" parent="1">
          <mxGeometry x="230" y="430" width="70" height="60" as="geometry" />
        </mxCell>
        <mxCell id="ptf8N6MJuxo93Xc3bLuZ-38" value="i max" style="rounded=0;whiteSpace=wrap;html=1;shadow=0;sketch=0;fillColor=none;fontSize=17;" vertex="1" parent="1">
          <mxGeometry x="20" y="500" width="120" height="60" as="geometry" />
        </mxCell>
        <mxCell id="ptf8N6MJuxo93Xc3bLuZ-39" value="k max" style="rounded=0;whiteSpace=wrap;html=1;shadow=0;sketch=0;fillColor=none;fontSize=17;" vertex="1" parent="1">
          <mxGeometry x="240" y="500" width="120" height="60" as="geometry" />
        </mxCell>
        <mxCell id="ptf8N6MJuxo93Xc3bLuZ-40" value="j max" style="rounded=0;whiteSpace=wrap;html=1;shadow=0;sketch=0;fillColor=none;fontSize=17;" vertex="1" parent="1">
          <mxGeometry x="370" y="500" width="120" height="60" as="geometry" />
        </mxCell>
        <mxCell id="ptf8N6MJuxo93Xc3bLuZ-41" value="k max" style="rounded=0;whiteSpace=wrap;html=1;shadow=0;sketch=0;fillColor=none;fontSize=17;" vertex="1" parent="1">
          <mxGeometry x="610" y="500" width="120" height="60" as="geometry" />
        </mxCell>
        <mxCell id="ptf8N6MJuxo93Xc3bLuZ-44" value="" style="endArrow=none;html=1;fontSize=15;entryX=0.5;entryY=1;entryDx=0;entryDy=0;" edge="1" parent="1" target="ptf8N6MJuxo93Xc3bLuZ-38">
          <mxGeometry width="50" height="50" relative="1" as="geometry">
            <mxPoint x="80" y="600" as="sourcePoint" />
            <mxPoint x="440" y="550" as="targetPoint" />
          </mxGeometry>
        </mxCell>
        <mxCell id="ptf8N6MJuxo93Xc3bLuZ-45" value="" style="endArrow=none;html=1;fontSize=15;entryX=0.5;entryY=1;entryDx=0;entryDy=0;" edge="1" parent="1" target="ptf8N6MJuxo93Xc3bLuZ-39">
          <mxGeometry width="50" height="50" relative="1" as="geometry">
            <mxPoint x="300" y="600" as="sourcePoint" />
            <mxPoint x="90" y="570" as="targetPoint" />
          </mxGeometry>
        </mxCell>
        <mxCell id="ptf8N6MJuxo93Xc3bLuZ-46" value="" style="endArrow=none;html=1;fontSize=15;entryX=0.5;entryY=1;entryDx=0;entryDy=0;" edge="1" parent="1" target="ptf8N6MJuxo93Xc3bLuZ-40">
          <mxGeometry width="50" height="50" relative="1" as="geometry">
            <mxPoint x="430" y="600" as="sourcePoint" />
            <mxPoint x="100" y="580" as="targetPoint" />
          </mxGeometry>
        </mxCell>
        <mxCell id="ptf8N6MJuxo93Xc3bLuZ-47" value="" style="endArrow=none;html=1;fontSize=15;entryX=0.5;entryY=1;entryDx=0;entryDy=0;" edge="1" parent="1" target="ptf8N6MJuxo93Xc3bLuZ-41">
          <mxGeometry width="50" height="50" relative="1" as="geometry">
            <mxPoint x="670" y="600" as="sourcePoint" />
            <mxPoint x="110" y="590" as="targetPoint" />
          </mxGeometry>
        </mxCell>
        <mxCell id="ptf8N6MJuxo93Xc3bLuZ-48" value="" style="endArrow=none;html=1;fontSize=15;" edge="1" parent="1">
          <mxGeometry width="50" height="50" relative="1" as="geometry">
            <mxPoint x="80" y="600" as="sourcePoint" />
            <mxPoint x="670" y="600" as="targetPoint" />
          </mxGeometry>
        </mxCell>
        <mxCell id="ptf8N6MJuxo93Xc3bLuZ-49" value="" style="endArrow=classic;html=1;fontSize=15;" edge="1" parent="1" target="ptf8N6MJuxo93Xc3bLuZ-51">
          <mxGeometry width="50" height="50" relative="1" as="geometry">
            <mxPoint x="370" y="600" as="sourcePoint" />
            <mxPoint x="370" y="660" as="targetPoint" />
          </mxGeometry>
        </mxCell>
        <mxCell id="ptf8N6MJuxo93Xc3bLuZ-51" value="Конец" style="ellipse;whiteSpace=wrap;html=1;fontSize=17;" vertex="1" parent="1">
          <mxGeometry x="310" y="620" width="120" height="80" as="geometry" />
        </mxCell>
      </root>
    </mxGraphModel>
  </diagram>
</mxfile>
